<svg width="25" height="24" viewBox="0 0 25 24" fill="none" xmlns="http://www.w3.org/2000/svg">
<path d="M2.5 10H22.5V8.2C22.5 7.0799 22.5 6.51984 22.282 6.09202C22.0903 5.7157 21.7843 5.40974 21.408 5.21799C20.9802 5 20.4201 5 19.3 5H5.7C4.5799 5 4.01984 5 3.59202 5.21799C3.2157 5.40973 2.90973 5.71569 2.71799 6.09202C2.5 6.51984 2.5 7.0799 2.5 8.2V15.8C2.5 16.9201 2.5 17.4802 2.71799 17.908C2.90973 18.2843 3.21569 18.5903 3.59202 18.782C4.01984 19 4.5799 19 5.7 19H11.5M15 21L17.025 20.595C17.2015 20.5597 17.2898 20.542 17.3721 20.5097C17.4452 20.4811 17.5147 20.4439 17.579 20.399C17.6516 20.3484 17.7152 20.2848 17.8426 20.1574L22 16C22.5523 15.4477 22.5523 14.5523 22 14C21.4477 13.4477 20.5523 13.4477 20 14L15.8426 18.1574C15.7152 18.2848 15.6516 18.3484 15.601 18.421C15.5561 18.4853 15.5189 18.5548 15.4903 18.6279C15.458 18.7102 15.4403 18.7985 15.405 18.975L15 21Z" stroke="#999999" stroke-width="2" stroke-linecap="round" stroke-linejoin="round"/>
</svg>
