<svg width="25" height="24" viewBox="0 0 25 24" fill="none" xmlns="http://www.w3.org/2000/svg">
<path d="M22.75 22L21.25 20.5M22.75 10H2.75M22.75 12V8.2C22.75 7.0799 22.75 6.51984 22.532 6.09202C22.3403 5.7157 22.0343 5.40974 21.658 5.21799C21.2302 5 20.6701 5 19.55 5H5.95C4.8299 5 4.26984 5 3.84202 5.21799C3.4657 5.40973 3.15973 5.71569 2.96799 6.09202C2.75 6.51984 2.75 7.0799 2.75 8.2V15.8C2.75 16.9201 2.75 17.4802 2.96799 17.908C3.15973 18.2843 3.46569 18.5903 3.84202 18.782C4.26984 19 4.8299 19 5.95 19H11.25M22.25 18C22.25 19.933 20.683 21.5 18.75 21.5C16.817 21.5 15.25 19.933 15.25 18C15.25 16.067 16.817 14.5 18.75 14.5C20.683 14.5 22.25 16.067 22.25 18Z" stroke="#999999" stroke-width="2" stroke-linecap="round" stroke-linejoin="round"/>
</svg>
